<?xml version="1.0" encoding="utf-8"?>
<!-- Generator: Adobe Illustrator 19.0.0, SVG Export Plug-In . SVG Version: 6.00 Build 0)  -->
<svg version="1.1" id="Layer_1" xmlns="http://www.w3.org/2000/svg" xmlns:xlink="http://www.w3.org/1999/xlink" x="0px" y="0px"
	 width="1400px" height="1400px" viewBox="0 0 1400 1400" enable-background="new 0 0 1400 1400" xml:space="preserve">
<rect id="XMLID_2_" fill-rule="evenodd" clip-rule="evenodd" fill="#004C85" width="1400" height="1400"/>
<g id="XMLID_1_">
	<path id="XMLID_250_" fill-rule="evenodd" clip-rule="evenodd" fill="#003B6F" d="M700,558.5c314.6,0,569.5,147.4,569.5,329.2
		S1014.6,1217,700,1217s-569.5-147.4-569.5-329.2S385.4,558.5,700,558.5"/>
	<polygon id="XMLID_249_" fill-rule="evenodd" clip-rule="evenodd" fill="#363636" points="798.5,675.3 837.6,652.7 850.9,667.4 
		797.4,698.3 	"/>
	<path id="XMLID_248_" fill-rule="evenodd" clip-rule="evenodd" fill="#7E8285" d="M776.9,678.3c0,12.7,9.4,28.3,21.1,34.9
		c1.3,0.8,2.6,1.4,3.9,1.8l2.5,4.6l8.2-4.6l0,0c4-1.9,6.5-6.4,6.5-13c0-12.7-9.4-28.3-21.1-34.9c-6.4-3.6-12.2-3.7-16-1l-7,4
		c0,0,1.3,1.7,2.5,3.3C777.1,674.8,776.9,676.5,776.9,678.3"/>
	<path id="XMLID_247_" fill-rule="evenodd" clip-rule="evenodd" fill="#6B6C71" d="M769.4,682.6c0,12.7,9.4,28.3,21.1,34.9
		c11.6,6.6,21.1,1.6,21.1-11.1c0-12.7-9.4-28.3-21.1-34.9C778.8,664.9,769.4,669.9,769.4,682.6"/>
	<path id="XMLID_246_" fill-rule="evenodd" clip-rule="evenodd" fill="#363636" d="M783.6,690.6c0,4.1,3.1,9.2,6.9,11.3
		c3.8,2.1,6.9,0.5,6.9-3.6c0-4.1-3.1-9.2-6.9-11.3C786.7,684.9,783.6,686.5,783.6,690.6"/>
	<path id="XMLID_245_" fill-rule="evenodd" clip-rule="evenodd" fill="#363636" d="M786.7,676.9c0,2.2,1.6,4.9,3.6,6
		c2,1.1,3.6,0.3,3.6-1.9s-1.6-4.9-3.6-6C788.3,673.9,786.7,674.8,786.7,676.9"/>
	<path id="XMLID_244_" fill-rule="evenodd" clip-rule="evenodd" fill="#363636" d="M786.7,708c0,2.2,1.6,4.9,3.6,6
		c2,1.1,3.6,0.3,3.6-1.9c0-2.2-1.6-4.9-3.6-6C788.3,704.9,786.7,705.8,786.7,708"/>
	<path id="XMLID_243_" fill-rule="evenodd" clip-rule="evenodd" fill="#363636" d="M772.4,687.2c0,2.2,1.6,4.9,3.6,6
		c2,1.1,3.6,0.3,3.6-1.9c0-2.2-1.6-4.9-3.6-6C774,684.2,772.4,685.1,772.4,687.2"/>
	<path id="XMLID_242_" fill-rule="evenodd" clip-rule="evenodd" fill="#363636" d="M801.4,699.9c0,2.2,1.6,4.9,3.6,6
		c2,1.1,3.6,0.3,3.6-1.9c0-2.2-1.6-4.9-3.6-6C803,696.8,801.4,697.7,801.4,699.9"/>
	<polygon id="XMLID_241_" fill-rule="evenodd" clip-rule="evenodd" fill="#44BAFF" points="875.2,568.9 808.4,607.5 875.5,646.2 
		942.4,607.7 	"/>
	<polygon id="XMLID_240_" fill-rule="evenodd" clip-rule="evenodd" fill="#227DAB" points="875.2,289.5 837.1,267.5 837.1,841.6 
		875.2,863.7 	"/>
	<polygon id="XMLID_239_" fill-rule="evenodd" clip-rule="evenodd" fill="#339FDA" points="875.2,289.5 913.2,267.6 913.4,841.6 
		875.2,863.7 	"/>
	<polygon id="XMLID_238_" fill-rule="evenodd" clip-rule="evenodd" fill="#44BAFF" points="875.1,245.6 837.1,267.5 875.2,289.5 
		913.2,267.6 	"/>
	<polygon id="XMLID_237_" fill-rule="evenodd" clip-rule="evenodd" fill="#227DAB" points="808.4,607.5 875.5,646.2 875.5,685 
		808.4,646.2 	"/>
	<polygon id="XMLID_236_" fill-rule="evenodd" clip-rule="evenodd" fill="#339FDA" points="942.7,607.5 875.5,646.2 875.5,685 
		942.7,646.2 	"/>
	<polygon id="XMLID_235_" fill-rule="evenodd" clip-rule="evenodd" fill="#363636" points="925.2,536.7 695.1,674.5 695.1,683.4 
		695.1,684.7 695.1,692.2 695.1,693.5 695.1,702.4 925.2,564.5 925.2,555.7 925.2,554.4 925.2,546.8 925.2,545.5 	"/>
	<polygon id="XMLID_234_" fill-rule="evenodd" clip-rule="evenodd" fill="#474747" points="464.9,536.7 695.1,674.5 695.1,683.4 
		695.1,684.7 695.1,692.2 695.1,693.5 695.1,702.4 464.9,564.5 464.9,555.7 464.9,554.4 464.9,546.8 464.9,545.5 	"/>
	<polygon id="XMLID_233_" fill-rule="evenodd" clip-rule="evenodd" fill="#5C5C5C" points="923.8,476.1 924.9,475.5 747.9,373.4 
		464.9,536.7 521.4,570.5 638.6,640.7 695.1,674.5 981.3,509.3 	"/>
	<path id="XMLID_232_" fill-rule="evenodd" clip-rule="evenodd" fill="#B8B9BB" d="M905.3,391.5c5.2-1.3,11.9-22.2,7.1-32.9
		c-4.8-10.6-22.2,6.8-22.2,23.2C890.1,382.8,898.8,393.1,905.3,391.5"/>
	<path id="XMLID_231_" fill-rule="evenodd" clip-rule="evenodd" fill="#8F9094" d="M899.5,398.3c0,0,1.9-6.8,2.6-9.3
		c0.6-2.6-5.5-6.8-7.7-3.5l-2.3,8.4L899.5,398.3z"/>
	<polygon id="XMLID_230_" fill-rule="evenodd" clip-rule="evenodd" fill="#151F21" points="344.7,438.3 423.6,393.8 347.2,372.9 
		329.8,389.6 	"/>
	<polygon id="XMLID_229_" fill-rule="evenodd" clip-rule="evenodd" fill="#272729" points="432.3,523.3 546,457.3 476.4,349 
		363.3,413.4 	"/>
	<polygon id="XMLID_228_" fill-rule="evenodd" clip-rule="evenodd" fill="#8F9094" points="739.3,680.2 818.6,635.8 742.6,614.8 
		725.2,631.6 	"/>
	<path id="XMLID_227_" fill-rule="evenodd" clip-rule="evenodd" fill="#D3D3D3" d="M864.6,666.8L723.1,567l-59.9-129.5L494.8,330.2
		c-0.1,2-48.7-8.8-97.4-13.7l-63.1-31.2l-20.3,9.2c4.2-8.7,9.3-17.7,16.4-24.8c18.4-19.3,93.8-72.2,141.8-80.2
		c0,0,30.3-11.3,47.7-4.2c17.4,7.4,69.9,30.3,69.9,30.3c101.8,18,228.7,109.5,247.8,122.4c11,6.1,71.2,66,71.2,66
		s155.6,90.9,181.4,133.1c6.1,9.3,5.2,35.4,5.2,35.4s3.9,3.9,3.9,11.6c0,5.2,7.4,51.2-14.8,56.1c-5.5,12.2-3.5,26.7-20.9,38
		c0,0-12.2,30.3-82.8,48.6c-43.8,16.4-69.4,32.2-106.1,23.2l-8.9-76.6L864.6,666.8z"/>
	<path id="XMLID_226_" fill-rule="evenodd" clip-rule="evenodd" fill="#A9ABAF" d="M316.6,293.4l-2.6,1.2
		c4.2-8.7,9.3-17.7,16.4-24.8c18.4-19.3,93.8-72.2,141.8-80.2c0,0,30.3-11.3,47.7-4.2c-82.6,13.8-132.6,57.4-187.1,96.9
		C326.7,286.7,321.3,290.4,316.6,293.4"/>
	<path id="XMLID_225_" fill-rule="evenodd" clip-rule="evenodd" fill="#B8B9BB" d="M344.7,438.3l-50.3-53.2v-45.7
		c0-7.4,9.3-17.1,9.3-17.1s3.2-13.2,10-27.7l10.2-17l73.6,38.9c49,1,97.6,13.5,97.6,13.5l171.1,106l58.6,129.8
		c48.3,27.1,95.1,56.1,136.8,91.3c19.1,16.2,29.1,59.3,29.4,85.1c-0.8,3.5-23.8,6-28.3,4.3c0,0-2.9-72.8-59.6-106
		c-56.7-33.2-68.6,5.2-63.8,39.6L461,516.5c0,0-4.2-72.5-59.3-103.7C347.2,381.9,341.8,418.3,344.7,438.3"/>
	<path id="XMLID_224_" fill-rule="evenodd" clip-rule="evenodd" fill="#A9ABAF" d="M294.1,385.1v-42.9l0.6-6.1
		c0.3-0.6,0.6-1.6,1-2.3c0,1.6,0.3,3.2,0.6,4.5c1,3.9,56.4,67.3,56.4,67.3c-8.7,7.4-9.7,22.2-8.1,32.5L294.1,385.1z"/>
	<path id="XMLID_223_" fill-rule="evenodd" clip-rule="evenodd" fill="#D3D3D3" d="M452.9,355.5c0,0-11.6,41.2,53.2,79.3
		s198.1,114.7,198.1,114.7l-9.3-22.9L452.9,355.5z"/>
	<path id="XMLID_222_" fill-rule="evenodd" clip-rule="evenodd" fill="#151F21" d="M837.6,345.1c0,0-37.7,55.7-159.8,96l44.5,97.6
		c29.3,2.6,179.5-38,199.1-119.2L837.6,345.1z"/>
	<path id="XMLID_221_" fill-rule="evenodd" clip-rule="evenodd" fill="#38383B" d="M838.9,349.7c0,0-42.2,54.8-152.4,91.2l43.2,88.6
		c26.4,2.3,166.9-39.6,184.6-112.4L838.9,349.7z"/>
	<path id="XMLID_220_" fill-rule="evenodd" clip-rule="evenodd" fill="#272729" d="M812,375.4c-23.6,19.1-64,45.1-125.5,65.5
		l43.2,88.6c22,1.9,123.5-27,166.8-78.9C880.6,435.8,827.3,386.6,812,375.4"/>
	<path id="XMLID_219_" fill-rule="evenodd" clip-rule="evenodd" fill="#272729" d="M579.5,395.7c29.3,17.1,60.6,35.4,76.7,45.4
		l42.2,92.5c0,0-73.1-41.9-131.5-75.4L579.5,395.7z"/>
	<path id="XMLID_218_" fill-rule="evenodd" clip-rule="evenodd" fill="#272729" d="M455.5,355.1c11-2.9,45.7-3.9,58.6,3.2
		c5.8,3.2,27.4,15.5,52.8,30.3l-12.9,62.5c-24.8-14.2-45.4-26.1-53.8-31.3C471.9,402.8,444.5,358,455.5,355.1"/>
	<path id="XMLID_215_" fill-rule="evenodd" clip-rule="evenodd" fill="#151F21" d="M655.6,441.8l41.2,90.5
		c-19-11-188.2-107.9-195.9-112.8c-25.1-15.1-48.6-50.6-47-61.2c0.3-1.3,1-2.3,1.9-2.3c10.6-2.6,45.4-3.9,58.3,3.2
		C520.9,362.5,639.8,431.8,655.6,441.8 M699.7,535.2l-43.2-94.4c-15.5-9.3-135-78.9-142.1-82.8c-13.2-7.1-48.3-5.8-59.3-3.2
		c-1,0.3-2.6,1-2.9,3.5c-1.6,10.6,22.2,47,47.7,62.5c8.4,5.2,195.9,112.8,197.8,113.7L699.7,535.2z"/>
	<path id="XMLID_214_" fill-rule="evenodd" clip-rule="evenodd" fill="#151F21" d="M498.3,325.2c0,0,70.6-78,144.3-90.9
		c0,0-46.1-20-83.4-17.4c-37.4,2.9-110.2,32.5-158.8,93.4C400.7,310.3,447.4,312,498.3,325.2"/>
	<path id="XMLID_213_" fill-rule="evenodd" clip-rule="evenodd" fill="#38383B" d="M484.5,319c0,0,69.6-76.7,142.1-89.6
		c0,0-29.3-13.5-66-11c-36.7,2.6-107,30-154.6,89.9C405.5,308.4,434.2,307.8,484.5,319"/>
	<path id="XMLID_212_" fill-rule="evenodd" clip-rule="evenodd" fill="#272729" d="M484.5,319c0,0,33.7-37.1,78.6-64l0,0
		c0,0-30.3-13.2-53.6-23.3c-34.1,13.8-73.3,38.7-103.5,76.7C405.5,308.4,434.2,307.8,484.5,319"/>
	<path id="XMLID_211_" opacity="0.4" fill-rule="evenodd" clip-rule="evenodd" fill="#151F21" d="M550.5,555.8h1.3V475
		c0-5.2,1.6-10.3,4.2-14.8l4.8-7.4l-1-0.6l-4.8,7.4c-2.9,4.8-4.5,10-4.5,15.5V555.8z"/>
	<path id="XMLID_210_" fill-rule="evenodd" clip-rule="evenodd" fill="#151F21" d="M350.1,441.8c0,28.7,21.3,63.8,47.7,78.6
		c26.1,14.8,47.7,3.5,47.7-25.1c0-28.7-21.3-63.8-47.7-78.6C371.4,401.8,350.1,413.1,350.1,441.8"/>
	<path id="XMLID_209_" fill-rule="evenodd" clip-rule="evenodd" fill="#272729" d="M360.1,448.6c0,21.9,16.4,49.3,36.7,60.6
		c20.3,11.3,36.7,2.6,36.7-19.3s-16.4-49.3-36.7-60.6C376.6,418,360.1,426.7,360.1,448.6"/>
	<path id="XMLID_208_" fill-rule="evenodd" clip-rule="evenodd" fill="#CAC9C7" d="M363,449.2c0,20.6,15.5,46.4,34.5,57
		c19,10.6,34.5,2.6,34.5-18.4c0-20.6-15.5-46.4-34.5-57C378.5,420.2,363,428.3,363,449.2"/>
	<path id="XMLID_207_" fill-rule="evenodd" clip-rule="evenodd" fill="#151F21" d="M397.5,433.4c5.5,2.9,8.7,7.4,8.7,7.4l-6.8,9.3
		l-1.9-1.3l-1.9-1.3l-6.8-16.8C388.8,431.2,392.3,430.5,397.5,433.4"/>
	<path id="XMLID_206_" fill-rule="evenodd" clip-rule="evenodd" fill="#151F21" d="M428.1,475c1.6,6.4,0.6,10,0.6,10l-13.5-10.3
		l-0.6-2.6l-0.6-2.6l9.3-5.8C423.3,463.7,426.5,468.2,428.1,475"/>
	<path id="XMLID_205_" fill-rule="evenodd" clip-rule="evenodd" fill="#151F21" d="M416.5,507.2c-4.5,1-8.4-1-8.4-1l-1.6-15.8
		l1.6-0.3l1.6-0.3l12.6,13.2C422,503,420.7,506.2,416.5,507.2"/>
	<path id="XMLID_204_" fill-rule="evenodd" clip-rule="evenodd" fill="#151F21" d="M378.8,486.3c-4.5-5.8-5.8-10.6-5.8-10.6
		l12.6,0.6l1.6,2.3l1.6,2.3l-1.6,13.9C387.2,494.3,383,492.1,378.8,486.3"/>
	<path id="XMLID_203_" fill-rule="evenodd" clip-rule="evenodd" fill="#151F21" d="M367.2,440.5c1.6-4.5,4.8-5.5,4.8-5.5l9.3,16.1
		l-0.6,1.6l-0.6,1.6l-13.5-4.5C366.6,449.9,365.3,445.3,367.2,440.5"/>
	<path id="XMLID_202_" fill-rule="evenodd" clip-rule="evenodd" fill="#DBDCDC" d="M376.6,460.5c0,10.6,8.1,24.2,18,29.6
		c10,5.5,18,1.3,18-9.3c0-10.6-8.1-24.2-18-29.6C384.6,445.3,376.6,449.5,376.6,460.5"/>
	<path id="XMLID_201_" fill-rule="evenodd" clip-rule="evenodd" fill="#CAC9C7" d="M384.6,465c0,5.8,4.2,12.9,9.7,16.1
		c5.5,2.9,9.7,0.6,9.7-5.2c0-5.8-4.2-12.9-9.7-16.1C389.1,456.9,384.6,459.2,384.6,465"/>
	<path id="XMLID_200_" fill-rule="evenodd" clip-rule="evenodd" fill="#151F21" d="M387.5,466.6c0,4.2,3.2,9.3,6.8,11.3
		c3.9,2.3,6.8,0.6,6.8-3.5c0-4.2-3.2-9.3-6.8-11.3C390.7,460.8,387.5,462.4,387.5,466.6"/>
	<path id="XMLID_199_" fill-rule="evenodd" clip-rule="evenodd" fill="#727272" d="M1076.3,592.9l7.4,21.6c0,0-13.5,28-132.7,77.6
		l-2.3-23.8C949.1,668.3,1036.7,633.2,1076.3,592.9"/>
	<path id="XMLID_198_" fill-rule="evenodd" clip-rule="evenodd" fill="#B8B9BB" d="M949.1,668.3c0,0-213.1-122.4-226.8-129.5
		c0,0,196.6,88.7,238.7,124.7L949.1,668.3z"/>
	<path id="XMLID_197_" fill-rule="evenodd" clip-rule="evenodd" fill="#E3E3E3" d="M1076.3,592.9c0,0-97.6-135-155-173.3
		c0,0,84.7,76.4,144,183.3L1076.3,592.9z"/>
	<path id="XMLID_196_" fill-rule="evenodd" clip-rule="evenodd" fill="#1F1B1C" d="M1076.3,592.9l7.4,21.6c0,0-13.5,28-132.7,77.6
		l-2.3-23.8C949.1,668.3,1036.7,633.2,1076.3,592.9"/>
	<path id="XMLID_195_" fill-rule="evenodd" clip-rule="evenodd" fill="#B8B9BB" d="M1082.1,613.8l-6.8-19.7c0.3-0.3,1-0.6,1.3-1.3
		l7.4,21.6c0,0-13.9,28-133.1,77.6l-0.1-1.6C1068.1,641.6,1082.1,613.8,1082.1,613.8"/>
	<polygon id="XMLID_194_" fill-rule="evenodd" clip-rule="evenodd" fill="#151F21" points="579.8,395.9 567.4,458.9 553.7,450.1 
		566.9,388.4 	"/>
	<path id="XMLID_193_" opacity="0.4" fill-rule="evenodd" clip-rule="evenodd" fill="#151F21" d="M713.9,652.5v-79.9l-14.8-39
		l-1.3,0.3l14.8,39v77.3L485.8,516.9l-11.6-75.1c-1.6-10,0.3-20.6,5.2-29.6l3.5-6.4l23.8-49.9l-1.3-0.6l-23.8,49.9l-3.5,6.4
		c-5.2,9-7.1,20-5.5,30.3l11.6,75.7h0.3L713.9,652.5z"/>
	<path id="XMLID_192_" fill-rule="evenodd" clip-rule="evenodd" fill="#A9ABAF" d="M944.9,732.7c0,0-68.6,20.6-83.8,1.3v14.8
		c6.4,16.1,34.5,14.8,48.3,11.9c57.7-11.3,95.7-33.8,124.7-49.9c31.9-17.7,58.6-36.4,59-68.3c-10.6-14.5-12.9,4.8-12.9,4.8
		l-119.9,75.4L944.9,732.7z"/>
	<path id="XMLID_191_" fill-rule="evenodd" clip-rule="evenodd" fill="#1F1B1C" d="M952.2,728.1v-23c0,0,92.4-27.3,134.8-79.6
		l-1.2,22.7C1086.2,648.2,1072.2,681.9,952.2,728.1"/>
	<path id="XMLID_190_" fill-rule="evenodd" clip-rule="evenodd" fill="#A9ABAF" d="M738.4,663.6L458.8,501.3
		c0.8,5.6,0.9,11.1,0.2,16.5l280.3,162.4C738.6,674.6,738.2,669.1,738.4,663.6"/>
	<path id="XMLID_189_" fill-rule="evenodd" clip-rule="evenodd" fill="#B8B9BB" d="M685.5,526.9c0,0,10,0,11.3,0
		c1.3,0,3.9-5.2-1.9-9.3h-9.3V526.9z"/>
	<path id="XMLID_188_" fill-rule="evenodd" clip-rule="evenodd" fill="#8F9094" d="M698.4,524.9h0.3c-0.3,1.3-1,2.3-1.6,2.3
		c-1.3,0-11.3,0-11.3,0v-1.9C689.1,524.9,697.1,524.9,698.4,524.9"/>
	<path id="XMLID_187_" fill-rule="evenodd" clip-rule="evenodd" fill="#B8B9BB" d="M682.3,505.6c-8.1-6.4-34.2,3.2-35.1,12.2
		c-1,9.3,16.4,17.7,38.3,11.6C687.1,529.4,692.3,513.3,682.3,505.6"/>
	<path id="XMLID_186_" fill-rule="evenodd" clip-rule="evenodd" fill="#8F9094" d="M687.5,525.2L687.5,525.2
		c-0.6,2.6-1.3,4.2-1.9,4.2c-20.9,5.8-37.7-1.6-38-10.3C653.3,525.9,668.8,530.4,687.5,525.2"/>
	<path id="XMLID_185_" fill-rule="evenodd" clip-rule="evenodd" fill="#444444" d="M946.9,692.9c-5.7-3.6-16.9-16.4-24.9-16.6
		l-29.9-0.7c-6.6-0.1-18.3-4.9-24.9-10c3.3,7.3,5.7,13.5,10.5,20.7c3.4,5.1,3.9,5.7,9.8,6.4C907.6,695.2,927.3,694.7,946.9,692.9"/>
	<path id="XMLID_184_" fill-rule="evenodd" clip-rule="evenodd" fill="#262425" d="M894.7,675.8l-2.6-0.1c-6.6-0.1-18.3-4.9-24.9-10
		c3.3,7.3,5.7,13.5,10.5,20.7c3.4,5.1,3.9,5.7,9.8,6.4c6.8,0.8,13.6,1.3,20.3,1.5L894.7,675.8L894.7,675.8z"/>
	<path id="XMLID_183_" fill-rule="evenodd" clip-rule="evenodd" fill="#444444" d="M1094.1,549.7c-3.1,8.3-6.3,18.7-9.4,27
		c-4.1,10.9,0.4,24,3.6,34.6c4.4-7.7,8.4-15.7,11.1-24.3c-0.1-1.3-0.2-2.3-0.2-2.8c0-7.7-3.9-11.6-3.9-11.6
		S1095.8,560.4,1094.1,549.7"/>
	<polygon id="XMLID_182_" fill-rule="evenodd" clip-rule="evenodd" fill="#44BAFF" points="521.4,1009.3 454.5,1047.9 521.7,1086.6 
		588.5,1048.1 	"/>
	<polygon id="XMLID_181_" fill-rule="evenodd" clip-rule="evenodd" fill="#227DAB" points="521.4,493.7 483.2,471.7 483.2,1045.9 
		521.4,1067.9 	"/>
	<polygon id="XMLID_180_" fill-rule="evenodd" clip-rule="evenodd" fill="#339FDA" points="521.4,493.7 559.3,471.8 559.5,1045.9 
		521.4,1067.9 	"/>
	<polygon id="XMLID_179_" fill-rule="evenodd" clip-rule="evenodd" fill="#44BAFF" points="521.2,449.8 483.2,471.7 521.4,493.7 
		559.3,471.8 	"/>
	<polygon id="XMLID_178_" fill-rule="evenodd" clip-rule="evenodd" fill="#227DAB" points="454.5,1047.9 521.7,1086.6 521.7,1125.4 
		454.5,1086.6 	"/>
	<polygon id="XMLID_177_" fill-rule="evenodd" clip-rule="evenodd" fill="#339FDA" points="588.8,1047.9 521.7,1086.6 521.7,1125.4 
		588.8,1086.6 	"/>
	<polygon id="XMLID_176_" fill-rule="evenodd" clip-rule="evenodd" fill="#F2AA00" points="567.9,799.4 529.8,821.4 529.8,898.3 
		567.9,876.3 	"/>
	<polygon id="XMLID_175_" fill-rule="evenodd" clip-rule="evenodd" fill="#FFCA13" points="567.9,799.4 559.4,794.5 521.3,816.5 
		529.8,821.4 	"/>
	<polygon id="XMLID_174_" fill-rule="evenodd" clip-rule="evenodd" fill="#F2C100" points="529.8,898.3 521.3,893.5 521.3,816.5 
		529.8,821.4 	"/>
	<path id="XMLID_173_" fill-rule="evenodd" clip-rule="evenodd" fill="#003B6F" d="M917.8,1059c46.8,0,84.7,21.9,84.7,49
		s-37.9,49-84.7,49c-46.8,0-84.7-21.9-84.7-49S871.1,1059,917.8,1059"/>
	<path id="XMLID_85_" fill-rule="evenodd" clip-rule="evenodd" fill="#282725" d="M917.8,1038.9c22,0,41.3,6.8,52,16.9
		c4.6-4.5,7.2-9.7,7.2-15.3c0-16.6-23.3-30-51.9-30c-28.7,0-51.9,13.4-51.9,30c0,2.9,0.7,5.7,2.1,8.4
		C886.3,1042.7,901.3,1038.9,917.8,1038.9 M943.2,1106.2L943.2,1106.2L943.2,1106.2L943.2,1106.2z M941.9,1106.5
		c0.2-0.1,0.5-0.1,0.7-0.2C942.4,1106.4,942.1,1106.5,941.9,1106.5z M940.5,1106.9c0.3-0.1,0.5-0.1,0.8-0.2
		C941,1106.7,940.8,1106.8,940.5,1106.9z M939.1,1107.2c0.3-0.1,0.6-0.1,0.8-0.2C939.6,1107.1,939.4,1107.1,939.1,1107.2z
		 M938.5,1107.3c0.2,0,0.4-0.1,0.6-0.1L938.5,1107.3z M937.6,1107.5c0.3-0.1,0.6-0.1,0.9-0.2
		C938.2,1107.4,937.9,1107.4,937.6,1107.5z M936.2,1107.7c0.3-0.1,0.6-0.1,0.9-0.2C936.8,1107.6,936.5,1107.7,936.2,1107.7z
		 M934.7,1108c0.3-0.1,0.7-0.1,1-0.2C935.4,1107.9,935.1,1107.9,934.7,1108z M933.3,1108.2c0.4-0.1,0.7-0.1,1.1-0.2
		C934,1108.1,933.6,1108.2,933.3,1108.2z M931.8,1108.5c0.4,0,0.7-0.1,1.1-0.2C932.5,1108.3,932.1,1108.4,931.8,1108.5z
		 M930.2,1108.6c0.4,0,0.8-0.1,1.2-0.2C931.1,1108.5,930.6,1108.6,930.2,1108.6z M928.7,1108.8c0.4,0,0.8-0.1,1.3-0.1
		C929.6,1108.7,929.2,1108.8,928.7,1108.8z M927.2,1109c0.4,0,0.9-0.1,1.3-0.1C928.1,1108.9,927.7,1108.9,927.2,1109z M925.7,1109.1
		c0.5,0,0.9-0.1,1.4-0.1C926.6,1109,926.1,1109.1,925.7,1109.1z M924.1,1109.2c0.5,0,1-0.1,1.4-0.1
		C925.1,1109.1,924.6,1109.2,924.1,1109.2z M922.6,1109.3c0.5,0,1,0,1.5-0.1C923.5,1109.2,923.1,1109.2,922.6,1109.3z M921,1109.3
		c0.5,0,1,0,1.5-0.1C922,1109.3,921.5,1109.3,921,1109.3z M919.5,1109.4c0.5,0,1,0,1.5,0C920.4,1109.3,919.9,1109.4,919.5,1109.4z
		 M917.8,1109.4c0.5,0,1,0,1.5,0C918.9,1109.4,918.4,1109.4,917.8,1109.4z M916.6,1044.1c0.4,0,0.8,0,1.3,0
		C917.4,1044.1,917,1044.1,916.6,1044.1z M915.3,1044.2c0.4,0,0.8,0,1.2,0C916.1,1044.1,915.7,1044.2,915.3,1044.2z M914,1044.2
		c0.4,0,0.8,0,1.1,0C914.7,1044.2,914.3,1044.2,914,1044.2z M912.6,1044.3c0.4,0,0.7,0,1.1-0.1
		C913.4,1044.2,913,1044.3,912.6,1044.3z M911.3,1044.4c0.4,0,0.7-0.1,1.1-0.1C912,1044.3,911.7,1044.3,911.3,1044.4z M910,1044.5
		c0.4,0,0.8-0.1,1.1-0.1C910.7,1044.4,910.4,1044.4,910,1044.5z M908.7,1044.6c0.4,0,0.7-0.1,1.1-0.1
		C909.5,1044.5,909.1,1044.6,908.7,1044.6z M907.5,1044.7c0.4,0,0.7-0.1,1.1-0.1C908.2,1044.6,907.9,1044.7,907.5,1044.7z
		 M906.3,1044.9c0.4,0,0.7-0.1,1.1-0.1C907,1044.8,906.6,1044.8,906.3,1044.9z M905,1045.1c0.3-0.1,0.7-0.1,1-0.1
		C905.7,1045,905.3,1045,905,1045.1z M903.8,1045.2c0.3-0.1,0.7-0.1,1-0.2C904.4,1045.1,904.1,1045.2,903.8,1045.2z M902.5,1045.5
		c0.3-0.1,0.6-0.1,0.9-0.2C903.1,1045.3,902.8,1045.4,902.5,1045.5z M901.3,1045.7c0.3-0.1,0.6-0.1,0.9-0.2
		C901.9,1045.6,901.6,1045.6,901.3,1045.7z M900.2,1045.9c0.3-0.1,0.6-0.1,0.9-0.2C900.7,1045.8,900.5,1045.9,900.2,1045.9z
		 M899,1046.2c0.3-0.1,0.6-0.1,0.8-0.2C899.6,1046,899.3,1046.1,899,1046.2z M897.8,1046.4c0.3-0.1,0.6-0.1,0.8-0.2
		C898.4,1046.3,898.1,1046.4,897.8,1046.4z M896.7,1046.7c0.3-0.1,0.5-0.1,0.8-0.2C897.2,1046.6,896.9,1046.7,896.7,1046.7z
		 M895.5,1047c0.2-0.1,0.5-0.1,0.7-0.2C896,1046.9,895.7,1047,895.5,1047z M894.5,1047.3c0.2-0.1,0.4-0.1,0.6-0.2
		C894.9,1047.2,894.7,1047.3,894.5,1047.3z M891.2,1048.4c0.1-0.1,0.3-0.1,0.4-0.2C891.5,1048.3,891.4,1048.3,891.2,1048.4z
		 M890.1,1048.8c0.1,0,0.2-0.1,0.4-0.1C890.4,1048.7,890.3,1048.7,890.1,1048.8z M963.6,1059.9c0.1,0.2,0.3,0.3,0.4,0.5
		C963.9,1060.2,963.7,1060.1,963.6,1059.9z M963.1,1059.4c0.1,0.1,0.2,0.2,0.3,0.3C963.3,1059.6,963.2,1059.5,963.1,1059.4z
		 M962.3,1058.6c0.2,0.2,0.3,0.3,0.5,0.5C962.7,1059,962.5,1058.8,962.3,1058.6z M961.8,1058.1c0.1,0.1,0.2,0.2,0.3,0.3
		C962,1058.3,961.9,1058.2,961.8,1058.1z M961.1,1057.5c0.1,0.1,0.3,0.2,0.4,0.3C961.4,1057.7,961.2,1057.6,961.1,1057.5z
		 M960.3,1056.9c0.1,0.1,0.3,0.2,0.4,0.3C960.6,1057.1,960.5,1057,960.3,1056.9z M959.7,1056.3c0.1,0.1,0.3,0.2,0.4,0.3
		C959.9,1056.5,959.8,1056.4,959.7,1056.3z M958.8,1055.7c0.2,0.1,0.4,0.3,0.6,0.4C959.2,1056,959,1055.8,958.8,1055.7z
		 M958.1,1055.2c0.1,0.1,0.3,0.2,0.4,0.3C958.4,1055.4,958.2,1055.3,958.1,1055.2z M957.2,1054.5c0.2,0.1,0.4,0.3,0.6,0.4
		C957.6,1054.8,957.4,1054.7,957.2,1054.5z M956.5,1054.1c0.2,0.1,0.3,0.2,0.5,0.3C956.8,1054.3,956.6,1054.2,956.5,1054.1z
		 M955.6,1053.5c0.2,0.1,0.4,0.2,0.5,0.3C956,1053.8,955.8,1053.7,955.6,1053.5z M954.7,1053c0.2,0.1,0.4,0.2,0.6,0.3
		C955.1,1053.2,954.9,1053.1,954.7,1053z M953.9,1052.5c0.2,0.1,0.3,0.2,0.5,0.3C954.2,1052.7,954.1,1052.6,953.9,1052.5z
		 M952.9,1052c0.2,0.1,0.5,0.3,0.7,0.4C953.4,1052.2,953.1,1052.1,952.9,1052z M952,1051.6c0.2,0.1,0.3,0.2,0.5,0.3
		C952.4,1051.7,952.2,1051.6,952,1051.6z M950.9,1051c0.3,0.1,0.5,0.3,0.8,0.4C951.5,1051.3,951.2,1051.1,950.9,1051z M950.1,1050.6
		c0.2,0.1,0.4,0.2,0.6,0.3C950.5,1050.8,950.3,1050.7,950.1,1050.6z M949.1,1050.2c0.2,0.1,0.4,0.2,0.7,0.3
		C949.5,1050.4,949.3,1050.3,949.1,1050.2z M948,1049.7c0.3,0.1,0.5,0.2,0.8,0.3C948.6,1049.9,948.3,1049.8,948,1049.7z
		 M947.1,1049.3c0.2,0.1,0.4,0.2,0.6,0.3C947.5,1049.5,947.3,1049.4,947.1,1049.3z M945.9,1048.9c0.3,0.1,0.6,0.2,0.9,0.3
		C946.5,1049.1,946.2,1049,945.9,1048.9z M945,1048.5c0.2,0.1,0.4,0.2,0.6,0.2C945.4,1048.7,945.2,1048.6,945,1048.5z M943.7,1048.1
		c0.3,0.1,0.6,0.2,0.9,0.3C944.3,1048.3,944,1048.2,943.7,1048.1z M942.8,1047.8c0.2,0.1,0.5,0.2,0.7,0.2
		C943.3,1048,943,1047.9,942.8,1047.8z M941.7,1047.5c0.3,0.1,0.5,0.2,0.8,0.2C942.2,1047.6,941.9,1047.5,941.7,1047.5z
		 M940.5,1047.1c0.3,0.1,0.6,0.2,1,0.3C941.1,1047.3,940.8,1047.2,940.5,1047.1z M939.4,1046.8c0.2,0.1,0.5,0.1,0.7,0.2
		C939.9,1047,939.7,1046.9,939.4,1046.8z M938.1,1046.5c0.3,0.1,0.7,0.2,1,0.3C938.8,1046.7,938.5,1046.6,938.1,1046.5z
		 M937.1,1046.3c0.3,0.1,0.5,0.1,0.8,0.2C937.6,1046.4,937.3,1046.3,937.1,1046.3z M935.7,1046c0.3,0.1,0.7,0.2,1,0.2
		C936.4,1046.1,936.1,1046,935.7,1046z M934.6,1045.7c0.3,0.1,0.6,0.1,1,0.2C935.3,1045.9,935,1045.8,934.6,1045.7z M933.5,1045.5
		c0.3,0.1,0.6,0.1,0.9,0.2C934.1,1045.6,933.8,1045.6,933.5,1045.5z M932.2,1045.3c0.4,0.1,0.7,0.1,1.1,0.2
		C932.9,1045.4,932.5,1045.3,932.2,1045.3z M931,1045.1c0.3,0,0.6,0.1,0.9,0.1C931.6,1045.2,931.3,1045.1,931,1045.1z M929.6,1044.9
		c0.4,0,0.7,0.1,1.1,0.2C930.4,1045,930,1045,929.6,1044.9z M928.5,1044.8c0.3,0,0.6,0.1,0.9,0.1
		C929.1,1044.8,928.8,1044.8,928.5,1044.8z M927.1,1044.6c0.4,0,0.7,0.1,1.1,0.1C927.8,1044.7,927.4,1044.6,927.1,1044.6z
		 M925.9,1044.5c0.4,0,0.7,0.1,1,0.1C926.6,1044.6,926.2,1044.5,925.9,1044.5z M924.6,1044.4c0.3,0,0.7,0.1,1,0.1
		C925.3,1044.4,924.9,1044.4,924.6,1044.4z M923.3,1044.3c0.4,0,0.8,0,1.2,0.1C924,1044.3,923.6,1044.3,923.3,1044.3z M922,1044.2
		c0.3,0,0.6,0,1,0C922.7,1044.3,922.3,1044.2,922,1044.2z M920.6,1044.2c0.4,0,0.8,0,1.2,0C921.4,1044.2,921,1044.2,920.6,1044.2z
		 M919.3,1044.1c0.3,0,0.7,0,1,0C920,1044.2,919.7,1044.1,919.3,1044.1z M917.8,1044.1c0.4,0,0.8,0,1.2,0
		C918.7,1044.1,918.2,1044.1,917.8,1044.1z M986.1,1040.5v32c0,6.1-2.6,11.8-7.3,16.7v16.9c0,19.5-27.3,35.2-60.9,35.2
		c-33.7,0-60.9-15.8-60.9-35.2v-32c0-6.1,2.6-11.8,7.3-16.7v-16.9c0-19.5,27.3-35.2,60.9-35.2
		C958.8,1005.3,986.1,1021.1,986.1,1040.5z"/>
	<path id="XMLID_84_" fill-rule="evenodd" clip-rule="evenodd" fill="#282725" d="M978.8,1074.2v32c0,19.5-27.3,35.2-60.9,35.2
		c-33.7,0-60.9-15.8-60.9-35.2v-32c0,19.5,27.3,35.2,60.9,35.2C951.5,1109.4,978.8,1093.6,978.8,1074.2"/>
	<path id="XMLID_81_" fill-rule="evenodd" clip-rule="evenodd" fill="#383734" d="M917.8,1044.1c28.7,0,51.9,13.4,51.9,30
		c0,16.6-23.3,30-51.9,30c-28.7,0-51.9-13.4-51.9-30C865.9,1057.6,889.2,1044.1,917.8,1044.1 M917.8,1038.9
		c33.7,0,60.9,15.8,60.9,35.2s-27.3,35.2-60.9,35.2c-33.7,0-60.9-15.8-60.9-35.2S884.2,1038.9,917.8,1038.9z"/>
	<path id="XMLID_80_" fill-rule="evenodd" clip-rule="evenodd" fill="#21201E" d="M917.8,1044.1c28.7,0,51.9,13.4,51.9,30
		c0,16.6-23.3,30-51.9,30c-28.7,0-51.9-13.4-51.9-30C865.9,1057.6,889.2,1044.1,917.8,1044.1"/>
	<path id="XMLID_79_" fill-rule="evenodd" clip-rule="evenodd" fill="#282725" d="M986.1,1040.5v32c0,19.5-27.3,35.2-60.9,35.2
		c-33.7,0-60.9-15.8-60.9-35.2v-32c0,19.5,27.3,35.2,60.9,35.2C958.8,1075.8,986.1,1060,986.1,1040.5"/>
	<path id="XMLID_76_" fill-rule="evenodd" clip-rule="evenodd" fill="#383734" d="M925.1,1010.5c28.7,0,51.9,13.4,51.9,30
		c0,16.6-23.3,30-51.9,30c-28.7,0-51.9-13.4-51.9-30C873.2,1024,896.5,1010.5,925.1,1010.5 M925.1,1005.3
		c33.7,0,60.9,15.8,60.9,35.2c0,19.5-27.3,35.2-60.9,35.2c-33.7,0-60.9-15.8-60.9-35.2C864.2,1021.1,891.5,1005.3,925.1,1005.3z"/>
	<path id="XMLID_75_" fill-rule="evenodd" clip-rule="evenodd" fill="#21201E" d="M925.1,1010.5c28.7,0,51.9,13.4,51.9,30
		c0,16.6-23.3,30-51.9,30c-28.7,0-51.9-13.4-51.9-30C873.2,1024,896.5,1010.5,925.1,1010.5"/>
	<path id="XMLID_74_" fill-rule="evenodd" clip-rule="evenodd" fill="#272729" d="M836.5,1136.6l24.7-13.9c2.1-0.7,4-1.8,5.7-3.2
		l0,0l0,0c5.4-4.4,8.7-12,8.7-22.3c0-24.2-17.9-53.8-40.2-66.3c-10.8-6.1-20.6-7-27.9-3.5l0,0l0,0c-0.7,0.3-1.4,0.7-2.1,1.2
		l-23.2,12.7l22.8,45.1c1.7,3,3.5,6,5.6,8.9L836.5,1136.6z"/>
	<path id="XMLID_73_" fill-rule="evenodd" clip-rule="evenodd" fill="#151F21" d="M771.2,1065.3c0,24.2,17.9,53.8,40.2,66.3
		c22,12.5,40.2,3,40.2-21.2c0-24.2-17.9-53.8-40.2-66.3C789.1,1031.6,771.2,1041.1,771.2,1065.3"/>
	<path id="XMLID_72_" fill-rule="evenodd" clip-rule="evenodd" fill="#272729" d="M779.6,1071c0,18.5,13.9,41.6,31,51.1
		c17.1,9.5,31,2.2,31-16.3c0-18.5-13.9-41.6-31-51.1C793.5,1045.2,779.6,1052.5,779.6,1071"/>
	<path id="XMLID_71_" fill-rule="evenodd" clip-rule="evenodd" fill="#CAC9C7" d="M782.1,1071.6c0,17.4,13.1,39.2,29.1,48.1
		c16,9,29.1,2.2,29.1-15.5c0-17.4-13.1-39.2-29.1-48.1C795.1,1047.1,782.1,1053.9,782.1,1071.6"/>
	<path id="XMLID_70_" fill-rule="evenodd" clip-rule="evenodd" fill="#151F21" d="M811.2,1058.3c4.6,2.4,7.3,6.3,7.3,6.3l-5.7,7.9
		l-1.6-1.1l-1.6-1.1l-5.7-14.1C803.8,1056.4,806.8,1055.8,811.2,1058.3"/>
	<path id="XMLID_69_" fill-rule="evenodd" clip-rule="evenodd" fill="#151F21" d="M837,1093.3c1.4,5.4,0.5,8.4,0.5,8.4l-11.4-8.7
		l-0.5-2.2l-0.5-2.2l7.9-4.9C832.9,1083.8,835.6,1087.6,837,1093.3"/>
	<path id="XMLID_68_" fill-rule="evenodd" clip-rule="evenodd" fill="#151F21" d="M827.2,1120.5c-3.8,0.8-7.1-0.8-7.1-0.8l-1.4-13.3
		l1.4-0.3l1.4-0.3l10.6,11.1C831.8,1117,830.7,1119.7,827.2,1120.5"/>
	<path id="XMLID_67_" fill-rule="evenodd" clip-rule="evenodd" fill="#151F21" d="M795.4,1102.8c-3.8-4.9-4.9-9-4.9-9l10.6,0.5
		l1.4,1.9l1.4,1.9l-1.4,11.7C802.5,1109.6,798.9,1107.7,795.4,1102.8"/>
	<path id="XMLID_66_" fill-rule="evenodd" clip-rule="evenodd" fill="#151F21" d="M785.6,1064.2c1.4-3.8,4.1-4.6,4.1-4.6l7.9,13.6
		l-0.5,1.4l-0.5,1.4l-11.4-3.8C785.1,1072.1,784,1068.3,785.6,1064.2"/>
	<path id="XMLID_65_" fill-rule="evenodd" clip-rule="evenodd" fill="#DBDCDC" d="M793.5,1081.1c0,9,6.8,20.4,15.2,25
		c8.4,4.6,15.2,1.1,15.2-7.9s-6.8-20.4-15.2-25C800.3,1068.3,793.5,1071.9,793.5,1081.1"/>
	<path id="XMLID_64_" fill-rule="evenodd" clip-rule="evenodd" fill="#CAC9C7" d="M800.3,1084.9c0,4.9,3.5,10.9,8.2,13.6
		c4.6,2.4,8.2,0.5,8.2-4.4c0-4.9-3.5-10.9-8.2-13.6C804.1,1078.1,800.3,1080,800.3,1084.9"/>
	<path id="XMLID_63_" fill-rule="evenodd" clip-rule="evenodd" fill="#151F21" d="M802.7,1086.3c0,3.5,2.7,7.9,5.7,9.5
		c3.3,1.9,5.7,0.5,5.7-3c0-3.5-2.7-7.9-5.7-9.5C805.4,1081.4,802.7,1082.7,802.7,1086.3"/>
	<path id="XMLID_62_" fill-rule="evenodd" clip-rule="evenodd" fill="#232321" d="M618.1,1153.3c0,0-20.7-5.9-25.1-3.7
		c-4.4,2.2-1,10.8,8.6,16.2c9.6,5.5,14.8,8.9,19.9,10.2c5.1,1.3,13.1,1.5,14.2-3.5c1.2-5,0.6-11.1-0.7-13.3
		C633.6,1157,618.1,1153.3,618.1,1153.3"/>
	<path id="XMLID_61_" fill-rule="evenodd" clip-rule="evenodd" fill="#ECD1A4" d="M634.9,996.2c0.7,10.9-2.6,39.4-2,54
		c0.7,14.6,2.6,15.9,3.6,37.1c1,21.2-1.3,72.5-4.3,75.5c-3,3-16.9,4.2-17.1-5.6c-0.2-10.2-3.1-72.2-4.7-78.2
		c-1.7-6-5.3-16.6-5.3-31.1c0-14.6-2.6-35.4-2.6-35.4s5.6-15.9,17.6-17.2C631.9,993.9,634.9,996.2,634.9,996.2"/>
	<path id="XMLID_60_" fill-rule="evenodd" clip-rule="evenodd" fill="#232321" d="M588.7,1171.3c0,0-23.2-6.6-28.1-4.1
		c-5,2.5-1.2,12.1,9.6,18.2c10.8,6.1,16.6,9.9,22.3,11.4c5.7,1.5,14.6,1.7,16-4c1.3-5.6,0.7-12.4-0.8-14.9
		C606.1,1175.4,588.7,1171.3,588.7,1171.3"/>
	<path id="XMLID_59_" fill-rule="evenodd" clip-rule="evenodd" fill="#F3E0BF" d="M571.3,1010.4c1,23.2,5.6,67.6,7,76.8
		c1.3,9.3,7,29.1,8.3,52c1.3,22.9,1,36.1,4,40.4c3,4.3,10.3,4.6,14.6,1.7c4.3-3,6.3-54.6,6.3-72.5c0-17.9-4.3-27.5-4-40.1
		c0.3-12.6,2-56.6,2-56.6c0,0-9.9-8.6-19.9-9.3C579.6,1002.1,571.3,1010.4,571.3,1010.4"/>
	<path id="XMLID_58_" fill-rule="evenodd" clip-rule="evenodd" fill="#D03B30" d="M635.7,1000.3c0.4,7.6-0.2,46.1,0,56.3
		c0.2,10.2,1.7,80,2.2,101.6c0,0-4.3,9-13.2,9.5c-8.9,0.5-14.9-1.5-14.9-1.5c0,0-8.9-108.9-8.1-123.8c0.7-14.9,0.7-30,0.7-30
		s2.7-10.8,15.6-12C631,999.2,635.7,1000.3,635.7,1000.3"/>
	<path id="XMLID_57_" fill-rule="evenodd" clip-rule="evenodd" fill="#ECAA86" d="M556.8,820.6c1.1,0.9,8.6,10.5,8.6,10.5l30.1,25.6
		c2,1.9,3.3,3.7,4.1,5.6c12.9,4.3,33.7,16.5,33.7,16.5c0,0,3.4,15.3-12.3,13.4c0,0-21.5-10.2-30.7-14.4c0,0,0,0,0,0l-1-0.5
		c-1.1-0.5-2-0.9-2.5-1.1c-0.3-0.1-0.6-0.3-0.8-0.5l0,0c0,0-0.1-0.1-0.1-0.1c-0.2-0.2-0.4-0.3-0.5-0.5c0,0-0.1-0.1-0.1-0.1l0,0
		c-7.6-8.5-26.5-36.6-27.6-37.3c0,0-4.8-0.9-5.8-3c-1-2.1-0.6-3.8-1.7-4.6c-1.1-0.8-5.8-2.5-6.9-3.3c-1.1-0.7-3.8-7.7-1.7-9.1
		c0,0,5,0.2,6.4,0.3C549.2,818,555.7,819.7,556.8,820.6"/>
	<path id="XMLID_56_" fill-rule="evenodd" clip-rule="evenodd" fill="#E14033" d="M568.9,1011.1c-1.3,33.3,4.3,67.1,4.5,71.3
		c0.2,4.2,9.4,84.8,9.7,89.5c0.2,4.7,11.7,21.3,26.1,13.4c0,0,3.4-83,1.7-96.9c-1.7-13.9-0.7-46.2,0.3-51.9c1-5.7,2.2-18.1,2.5-25.8
		c0.2-7.7-15.6-12.9-27.3-11.2C574.6,1001.1,568.9,1011.1,568.9,1011.1"/>
	<path id="XMLID_55_" fill-rule="evenodd" clip-rule="evenodd" fill="#E14033" d="M563.4,915.8c-2.4-14.4,5.4-22.3,22.9-32.5
		c7.2-4.2,34-22.6,47.2-6.2c13.2,16.4-0.7,53.2,0,74c0.7,20.9,2.4,50.6,2.4,50.6s-5.1,11.3-29.5,13.5c-24.3,2.2-37.5-3.4-37.5-3.4
		C568.8,1011.8,570.3,958,563.4,915.8"/>
	<path id="XMLID_54_" fill-rule="evenodd" clip-rule="evenodd" fill="#FFB790" d="M613.2,867.9c0,0,0.2,6.1,0,7.5
		c-0.2,1.3-6.6,5.6-13.1,6.3c-6.5,0.7-9.8-0.8-9.8-0.8l0-8.3c0,0-9.7,0.4-11-2.1c-1.3-2.5-3.8-15.1-2.8-17.8c1-2.6,2-5,2-6.5
		c0-1.5-1-6.3-0.7-8.3c0.3-2,3-7.3,3-7.3c0,0-4.4-5.5,7.7-9.1c12.1-3.6,28.2,0.3,30.2,4c2,3.6,1.8,6.3,1.8,6.3s5.8,7.1,4.2,12.8
		c-1.6,5.6-9.3,19.7-9.3,19.7L613.2,867.9z"/>
	<path id="XMLID_53_" fill-rule="evenodd" clip-rule="evenodd" fill="#3B1B0C" d="M588.5,821.5c12.1-3.6,28.2,0.3,30.2,4
		c2,3.6,1.8,6.3,1.8,6.3c0,0,5.8,7.1,4.2,12.8c-1.6,5.6-9.3,19.7-9.3,19.7l-2.2,3.6c0,0-14.2,4.6-17.1-3.8c-1.5-1.8-2.1-9.7-3.7-9
		c-1.6,0.7-1.9,6.1-1.9,6.1h-2c0,0-0.3-6.5,0-7.9c0.3-1.5-2.4-4.1-2.8-6.3c-0.3-2.2,1-8.1,1.1-9.4c0.1-1.3-6-7-6-7
		C580.8,830.6,576.4,825.1,588.5,821.5"/>
	<path id="XMLID_52_" fill-rule="evenodd" clip-rule="evenodd" fill="#FFB790" d="M536.6,1015.6c0.5-1.6,7.5-13.7,7.5-13.7
		l14.3-43.1c1.2-2.9,2.6-5.1,4.2-6.8c-0.9-15.6,3.1-43.1,3.1-43.1c0,0,14.8-10.2,19.6,7.4c0,0-1.7,27.4-2.2,39c0,0,0,0,0,0l-0.1,1.3
		c-0.1,1.4-0.1,2.6-0.1,3.2c0,0.4-0.1,0.7-0.1,1.1l0,0c0,0-0.1,0.1-0.1,0.2c-0.1,0.3-0.2,0.5-0.4,0.8c0,0.1,0,0.1-0.1,0.1l0,0
		c-5.8,11.8-27.7,44-27.9,45.5c0,0,1.1,5.5-0.8,7.5c-1.8,2-3.8,2.3-4.1,3.8c-0.4,1.5-0.2,7.3-0.5,8.8c-0.3,1.5-6.6,7.4-8.9,5.8
		c0,0-2-5.4-2.5-7C537.1,1024.8,536.1,1017.2,536.6,1015.6"/>
	<path id="XMLID_51_" fill-rule="evenodd" clip-rule="evenodd" fill="#D03B30" d="M561.6,932.4c0.1-10.3,0.6-24.5,1.9-29.1
		c2.2-7.6,18.2-13.2,23.3,4.2c2.6,8.9,2,21.9,0,33.1C586.7,940.6,566.9,944.7,561.6,932.4"/>
	<path id="XMLID_50_" fill-rule="evenodd" clip-rule="evenodd" fill="#272729" d="M804.1,746.6l24.7-13.9c2.1-0.7,4-1.8,5.7-3.2l0,0
		l0,0c5.4-4.4,8.7-12,8.7-22.3c0-24.2-17.9-53.8-40.2-66.3c-10.8-6.1-20.6-7-27.9-3.5l0,0l0,0c-0.7,0.3-1.4,0.7-2.1,1.2l-23.2,12.7
		l22.8,45.1c1.7,3,3.5,6,5.6,8.9L804.1,746.6z"/>
	<path id="XMLID_49_" fill-rule="evenodd" clip-rule="evenodd" fill="#151F21" d="M738.8,675.3c0,24.2,17.9,53.8,40.2,66.3
		c22,12.5,40.2,3,40.2-21.2c0-24.2-17.9-53.8-40.2-66.3C756.7,641.6,738.8,651.1,738.8,675.3"/>
	<path id="XMLID_48_" fill-rule="evenodd" clip-rule="evenodd" fill="#272729" d="M747.2,681c0,18.5,13.9,41.6,31,51.1
		c17.1,9.5,31,2.2,31-16.3c0-18.5-13.9-41.6-31-51.1C761.1,655.2,747.2,662.5,747.2,681"/>
	<path id="XMLID_47_" fill-rule="evenodd" clip-rule="evenodd" fill="#CAC9C7" d="M749.6,681.5c0,17.4,13.1,39.2,29.1,48.1
		c16,9,29.1,2.2,29.1-15.5c0-17.4-13.1-39.2-29.1-48.1C762.7,657.1,749.6,663.9,749.6,681.5"/>
	<path id="XMLID_46_" fill-rule="evenodd" clip-rule="evenodd" fill="#151F21" d="M778.7,668.2c4.6,2.4,7.3,6.3,7.3,6.3l-5.7,7.9
		l-1.6-1.1l-1.6-1.1l-5.7-14.1C771.4,666.3,774.4,665.8,778.7,668.2"/>
	<path id="XMLID_45_" fill-rule="evenodd" clip-rule="evenodd" fill="#151F21" d="M804.6,703.3c1.4,5.4,0.5,8.4,0.5,8.4l-11.4-8.7
		l-0.5-2.2l-0.5-2.2l7.9-4.9C800.5,693.8,803.2,697.6,804.6,703.3"/>
	<path id="XMLID_44_" fill-rule="evenodd" clip-rule="evenodd" fill="#151F21" d="M794.8,730.5c-3.8,0.8-7.1-0.8-7.1-0.8l-1.4-13.3
		l1.4-0.3l1.4-0.3l10.6,11.1C799.4,727,798.3,729.7,794.8,730.5"/>
	<path id="XMLID_43_" fill-rule="evenodd" clip-rule="evenodd" fill="#151F21" d="M763,712.8c-3.8-4.9-4.9-9-4.9-9l10.6,0.5l1.4,1.9
		l1.4,1.9l-1.4,11.7C770,719.6,766.5,717.7,763,712.8"/>
	<path id="XMLID_42_" fill-rule="evenodd" clip-rule="evenodd" fill="#151F21" d="M753.2,674.2c1.4-3.8,4.1-4.6,4.1-4.6l7.9,13.6
		l-0.5,1.4l-0.5,1.4l-11.4-3.8C752.6,682.1,751.5,678.3,753.2,674.2"/>
	<path id="XMLID_41_" fill-rule="evenodd" clip-rule="evenodd" fill="#DBDCDC" d="M761.1,691.1c0,9,6.8,20.4,15.2,25
		c8.4,4.6,15.2,1.1,15.2-7.9c0-9-6.8-20.4-15.2-25C767.9,678.3,761.1,681.8,761.1,691.1"/>
	<path id="XMLID_40_" fill-rule="evenodd" clip-rule="evenodd" fill="#CAC9C7" d="M767.9,694.9c0,4.9,3.5,10.9,8.2,13.6
		c4.6,2.4,8.2,0.5,8.2-4.4c0-4.9-3.5-10.9-8.2-13.6C771.7,688.1,767.9,690,767.9,694.9"/>
	<path id="XMLID_39_" fill-rule="evenodd" clip-rule="evenodd" fill="#151F21" d="M770.3,696.2c0,3.5,2.7,7.9,5.7,9.5
		c3.3,1.9,5.7,0.5,5.7-3c0-3.5-2.7-7.9-5.7-9.5C773,691.3,770.3,692.7,770.3,696.2"/>
	<path id="XMLID_38_" fill-rule="evenodd" clip-rule="evenodd" fill="#232321" d="M675.6,995.1c0,0,20.7-5.9,25.1-3.7
		c4.4,2.2,1,10.8-8.6,16.2c-9.6,5.5-14.8,8.9-19.9,10.2c-5.1,1.3-13.1,1.5-14.2-3.5c-1.2-5-0.6-11.1,0.7-13.3
		C660.1,998.8,675.6,995.1,675.6,995.1"/>
	<path id="XMLID_37_" fill-rule="evenodd" clip-rule="evenodd" fill="#ECD1A4" d="M658.8,838c-0.7,10.9,2.6,39.4,2,54
		c-0.7,14.6-2.6,15.9-3.6,37.1c-1,21.2,1.3,72.5,4.3,75.5c3,3,16.9,4.2,17.1-5.6c0.2-10.2,3.1-72.2,4.7-78.2
		c1.7-6,5.3-16.6,5.3-31.1c0-14.6,2.6-35.4,2.6-35.4s-5.6-15.9-17.6-17.2C661.8,835.7,658.8,838,658.8,838"/>
	<path id="XMLID_36_" fill-rule="evenodd" clip-rule="evenodd" fill="#232321" d="M705,1013.1c0,0,23.2-6.6,28.1-4.1
		c5,2.5,1.2,12.1-9.6,18.2c-10.8,6.1-16.6,9.9-22.3,11.4c-5.7,1.5-14.6,1.7-16-4c-1.3-5.6-0.7-12.4,0.8-14.9
		C687.6,1017.2,705,1013.1,705,1013.1"/>
	<path id="XMLID_35_" fill-rule="evenodd" clip-rule="evenodd" fill="#F3E0BF" d="M722.4,852.3c-1,23.2-5.6,67.6-7,76.8
		c-1.3,9.3-7,29.1-8.3,52c-1.3,22.9-1,36.1-4,40.4c-3,4.3-10.3,4.6-14.6,1.7c-4.3-3-6.3-54.6-6.3-72.5c0-17.9,4.3-27.5,4-40.1
		c-0.3-12.6-2-56.6-2-56.6c0,0,9.9-8.6,19.9-9.3C714.1,844,722.4,852.3,722.4,852.3"/>
	<path id="XMLID_34_" fill-rule="evenodd" clip-rule="evenodd" fill="#D03B30" d="M658,842.1c-0.4,7.6,0.2,46.1,0,56.3
		c-0.2,10.2-1.7,80-2.2,101.6c0,0,4.3,9,13.2,9.5c8.9,0.5,14.9-1.5,14.9-1.5c0,0,8.9-108.9,8.1-123.8c-0.7-14.9-0.7-30-0.7-30
		s-2.7-10.8-15.6-12C662.7,841,658,842.1,658,842.1"/>
	<path id="XMLID_33_" fill-rule="evenodd" clip-rule="evenodd" fill="#ECAA86" d="M736.9,662.5c-1.1,0.9-8.6,10.5-8.6,10.5
		l-30.1,25.6c-2,1.9-3.3,3.7-4.1,5.6c-12.9,4.3-33.7,16.5-33.7,16.5c0,0-3.4,15.3,12.3,13.4c0,0,21.5-10.2,30.7-14.4c0,0,0,0,0,0
		l1-0.5c1.1-0.5,2-0.9,2.5-1.1c0.3-0.1,0.6-0.3,0.8-0.5l0,0c0,0,0.1-0.1,0.1-0.1c0.2-0.2,0.4-0.3,0.5-0.5c0,0,0.1-0.1,0.1-0.1l0,0
		c7.6-8.5,26.5-36.6,27.6-37.3c0,0,4.8-0.9,5.8-3c1-2.1,0.6-3.8,1.7-4.6c1.1-0.8,5.8-2.5,6.9-3.3c1.1-0.7,3.8-7.7,1.7-9.1
		c0,0-5,0.2-6.4,0.3C744.5,659.8,738,661.5,736.9,662.5"/>
	<path id="XMLID_32_" fill-rule="evenodd" clip-rule="evenodd" fill="#E14033" d="M724.9,852.9c1.3,33.3-4.3,67.1-4.5,71.3
		c-0.2,4.2-9.4,84.8-9.7,89.5c-0.2,4.7-11.7,21.3-26.1,13.4c0,0-3.4-83-1.7-96.9c1.7-13.9,0.7-46.2-0.3-51.9
		c-1-5.7-2.2-18.1-2.5-25.8c-0.2-7.7,15.6-12.9,27.3-11.2C719.1,843,724.9,852.9,724.9,852.9"/>
	<path id="XMLID_31_" fill-rule="evenodd" clip-rule="evenodd" fill="#E14033" d="M730.3,757.7c2.4-14.4-5.4-22.3-22.9-32.5
		c-7.2-4.2-34-22.6-47.2-6.2c-13.2,16.4,0.7,53.2,0,74c-0.7,20.9-2.4,50.6-2.4,50.6s5.1,11.3,29.5,13.5c24.3,2.2,37.5-3.4,37.5-3.4
		C724.9,853.6,723.4,799.9,730.3,757.7"/>
	<path id="XMLID_30_" fill-rule="evenodd" clip-rule="evenodd" fill="#FFB790" d="M680.5,709.7c0,0-0.2,6.1,0,7.5
		c0.2,1.3,6.6,5.6,13.1,6.3c6.5,0.7,9.8-0.8,9.8-0.8l0-8.3c0,0,9.7,0.4,11-2.1c1.3-2.5,3.8-15.1,2.8-17.8c-1-2.6-2-5-2-6.5
		c0-1.5,1-6.3,0.7-8.3c-0.3-2-3-7.3-3-7.3c0,0,4.4-5.5-7.7-9.1c-12.1-3.6-28.2,0.3-30.2,4c-2,3.6-1.8,6.3-1.8,6.3s-5.8,7.1-4.2,12.8
		c1.6,5.6,9.3,19.7,9.3,19.7L680.5,709.7z"/>
	<path id="XMLID_29_" fill-rule="evenodd" clip-rule="evenodd" fill="#3B1B0C" d="M705.2,663.3c-12.1-3.6-28.2,0.3-30.2,4
		c-2,3.6-1.8,6.3-1.8,6.3c0,0-5.8,7.1-4.2,12.8c1.6,5.6,9.3,19.7,9.3,19.7l2.2,3.6c0,0,14.2,4.6,17.1-3.8c1.5-1.8,2.1-9.7,3.7-9
		c1.6,0.7,1.9,6.1,1.9,6.1h2c0,0,0.3-6.5,0-7.9c-0.3-1.5,2.4-4.1,2.8-6.3c0.3-2.2-1-8.1-1.1-9.4c-0.1-1.3,6-7,6-7
		C712.9,672.4,717.3,667,705.2,663.3"/>
	<path id="XMLID_28_" fill-rule="evenodd" clip-rule="evenodd" fill="#FFB790" d="M801,673.2c-1.2,1.1-8.9,12.9-8.9,12.9L760,718.3
		c-2.1,2.3-3.4,4.6-4.2,6.8c-14.4,6.2-37.1,22.1-37.1,22.1c0,0-2.5,17.9,15.4,14.2c0,0,23.7-13.8,33.8-19.5c0,0,0,0,0,0l1.1-0.6
		c1.3-0.7,2.2-1.2,2.8-1.5c0.3-0.2,0.6-0.4,0.9-0.6l0,0c0,0,0.1-0.1,0.1-0.1c0.2-0.2,0.4-0.4,0.5-0.7c0,0,0.1-0.1,0.1-0.1l0,0
		c7.9-10.5,26.9-44.5,28.1-45.4c0,0,5.4-1.5,6.3-4c1-2.5,0.3-4.4,1.5-5.4c1.2-1,6.4-3.4,7.6-4.4c1.2-0.9,3.7-9.2,1.1-10.6
		c0,0-5.8,0.7-7.3,0.9C809.4,669.5,802.2,672,801,673.2"/>
	<path id="XMLID_27_" fill-rule="evenodd" clip-rule="evenodd" fill="#D03B30" d="M736.8,731.7c-9,5.1-21.2,12.2-24.6,15.7
		c-5.6,5.6-2.9,22.3,14.8,18.4c9.1-2,20.1-8.8,29.1-15.9C756.1,749.8,750.1,730.5,736.8,731.7"/>
	<path id="XMLID_26_" fill-rule="evenodd" clip-rule="evenodd" fill="#F3E0BF" d="M278.6,655.5c2.8,2.1,3.2,2.4,3.8,2.8
		c2,1.3,5.3,0.2,9,0.7c3.7,0.5,7.9,4.3,8,5.8c0.1,1.5-5.6-0.2-6.3,0.4c-0.7,0.6,2.1,3.2,4.3,4.9c2.2,1.6,8.9,4.1,7.9,6.2
		c-1,2.1-12.8,2.6-16.8,1.1c-4.1-1.5-8.7-9.6-11.4-11.7c-0.1-0.1-3.4-1.8-3.5-1.9L278.6,655.5z"/>
	<path id="XMLID_25_" fill-rule="evenodd" clip-rule="evenodd" fill="#D03B30" d="M239.4,580.4c10.6-3.9,16.7,9,16.6,23.9
		c-0.1,14.8,3,36,3,36s-0.2-0.1-0.6-0.2l23.7,17.3c-2.1,2.5-3.9,5.5-5.5,8.7c0,0-24.1-10.9-34.1-14.7c-5.2-9.5-8.2-27.7-12.3-44.5
		C228.9,593.7,231.7,583.2,239.4,580.4"/>
	<path id="XMLID_24_" fill-rule="evenodd" clip-rule="evenodd" fill="#232321" d="M263.9,860.6c0,3.3-9.1,4.5-15.6,3.4
		c-6.5-1.1-10.5-5.1-12.8-8.2c-2.3-3.1-12.2-6.6-12.2-9.1l0-7.3c0-3.7,0-7.2,0-7.2l16.1-0.9c0,0,3.8,4.9,4.1,6.9
		C243.9,840.3,263.9,857.4,263.9,860.6"/>
	<path id="XMLID_23_" fill-rule="evenodd" clip-rule="evenodd" fill="#232321" d="M208,891.1c-4.5-0.1-13.3-2.6-14.7-8.3
		c-0.9-3.8-1-14.8-1-21.8c0-3.5,0.1-6,0.1-6l17.1,3.2c0,0,0.7,3.1,1.6,7.1c1.4,6.1,3.3,14.4,4.1,17.5
		C216.3,887.9,213.3,891.2,208,891.1"/>
	<path id="XMLID_22_" fill-rule="evenodd" clip-rule="evenodd" fill="#ECD1A4" d="M212.7,574.9c1.2,3.2-1.3,15.5-0.5,18.4
		c0.8,2.9,9.2,10.9,16.8,8.2c7.6-2.7,7.8-11.7,7.4-18.9C236,575.5,212.7,574.9,212.7,574.9"/>
	<path id="XMLID_21_" fill-rule="evenodd" clip-rule="evenodd" fill="#D03B30" d="M251.6,691.8c0,0-1.6,57.5-1.6,65.8
		c0,8.3-5.3,81.1-5.3,81.1c-3.4,4.2-18.7,2.6-22.2-0.1c0,0-3.2-56.9-1.7-61.3c-1.7-8.2-3.2-12.7-2.6-20.3c0-0.2-3.2-7.7-3.1-7.9
		c0.6-7.7,7.3-34.7,7.3-34.7s-3.7-24.9,0.9-28.9C227.9,681.6,251.6,691.8,251.6,691.8"/>
	<path id="XMLID_20_" fill-rule="evenodd" clip-rule="evenodd" fill="#E14033" d="M232.5,702.5c0,0-0.6,15.1-2.8,18.8
		c-2.2,3.7-5.8,6.8-6.8,10.5c-0.2,0.7,0.2,12.9-1.5,27.5c-3.2,27-9.2,64.2-9.2,66c0,14.8-0.6,35-0.6,35c0.6-1.6-8.1,6.6-20.4-0.5
		c0,0,0.3-59.1,1.5-64.4c1.2-5.2-0.2-22.5-0.2-30.8c0-8.3-4-36.6-2.2-48.6C192.2,704.1,205.1,676.7,232.5,702.5"/>
	<path id="XMLID_19_" fill-rule="evenodd" clip-rule="evenodd" fill="#E14033" d="M235.5,586.4c0,0,3.1-5.2,5.3-6.8
		c2.2-1.5,9,2.9,11.8,10.3c2.8,7.4,2,31.5,2.5,50.2c0.5,18.6-1.2,79.7-1.2,79.7c-4.3,5.2-15.5,8.3-22,9.6l0,0.3c0,0-1.7,0.4-4.7,0.6
		l0,0v0c-7.9,0.6-24.5,0.3-38.9-10.7c0,0,1.1-71.9-2.4-89.6c-3.5-17.8-3.5-25,9.2-32.8c12.8-7.8,17.1-9.1,17.1-9.1
		C213.3,596.1,237.7,607.6,235.5,586.4"/>
	<path id="XMLID_18_" fill-rule="evenodd" clip-rule="evenodd" fill="#F3E0BF" d="M230.1,675.2c2.8,2.1,3.2,2.4,3.8,2.8
		c2,1.3,5.3,0.2,9,0.7c3.7,0.5,7.9,4.3,8,5.8c0.1,1.5-5.6-0.2-6.3,0.4c-0.7,0.6,2.1,3.2,4.3,4.9c2.2,1.6,8.9,4.1,7.9,6.2
		c-1,2.1-12.8,2.6-16.8,1.1c-4.1-1.5-8.7-9.6-11.4-11.7c-0.1-0.1-3.4-1.8-3.5-1.9L230.1,675.2z"/>
	<path id="XMLID_17_" fill-rule="evenodd" clip-rule="evenodd" fill="#F3E0BF" d="M241.9,548.6c0.7,0.9,1.1,1.9,1.3,3.1
		c0.4,3.4,0.2,6.6,0.3,10c0,1.4,1.1,2.8,1.2,5.8c0.1,3-2.2,18.2-10.7,19.2c-8.5,1-14-4.1-16.3-6.2c-2.3-2.1-7.8-9.5-7.8-9.5
		s-4.8-8.5-5.9-13.4c-1-4.8,0.9-14.9,4.7-15.9c3.8-1,3.8-1,3.8-1c0.3-1.6,1.8-2.9,3.2-3.5c4.3-2.1,7.5-0.6,11.3,1.8
		c3.2,2,6.6,3.7,9.8,5.7C238.5,545.8,240.6,546.9,241.9,548.6"/>
	<path id="XMLID_16_" fill-rule="evenodd" clip-rule="evenodd" fill="#3B1B0C" d="M242.3,544c-0.9-0.4-1.7-1-2.5-1.4
		c-1.9-1-3.8-2-5.7-3c-5-2.6-11.2-4.7-16.8-3.2c-1.9,0.5-4.5,1.9-4.9,4.2c-7.8-0.9-10.2,9.1-8.5,17c1,4.8,5.9,13.4,5.9,13.4
		s0.9,1.2,2.2,2.8c-2.2-3.9-3.1-10.5,0.7-9.5c3.8,1,3.8,5.1,3.8,5.1h1.7c0,0,0.2-5,0-6.3c-0.2-1.4,2.3-3.8,2.1-4.8
		c-0.2-1.7-1.5-3.3-1.9-5c-0.3-1-0.5-1.7,0.6-1.6c1,0.1,2.4,1,3.5,1.3c10.8,3.2,18.8,0,21.9-8.2C243.6,544.6,242.9,544.3,242.3,544"
		/>
	<path id="XMLID_15_" fill-rule="evenodd" clip-rule="evenodd" fill="#D03B30" d="M190.9,600c10.6-3.9,16.7,9,16.6,23.9
		c-0.1,14.8,3,36,3,36s-0.2-0.1-0.6-0.2l23.7,17.3c-2.1,2.5-3.9,5.5-5.5,8.7c0,0-24.1-10.9-34.1-14.7c-5.2-9.5-8.2-27.7-12.3-44.5
		C180.5,613.4,183.2,602.9,190.9,600"/>
	<polygon id="XMLID_14_" fill-rule="evenodd" clip-rule="evenodd" fill="#339FDA" points="409.4,728.6 323.1,778.4 323.1,952.5 
		409.4,902.7 	"/>
	<polygon id="XMLID_13_" fill-rule="evenodd" clip-rule="evenodd" fill="#44BAFF" points="409.4,728.6 332.2,684 245.9,733.8 
		323.1,778.4 	"/>
	<polygon id="XMLID_12_" fill-rule="evenodd" clip-rule="evenodd" fill="#227DAB" points="323.1,952.5 245.9,908 245.9,733.8 
		323.1,778.4 	"/>
	<polygon id="XMLID_11_" fill-rule="evenodd" clip-rule="evenodd" fill="#464442" points="296.8,736.2 319,749.2 363,723.7 
		340.8,710.8 	"/>
	<polygon id="XMLID_10_" fill-rule="evenodd" clip-rule="evenodd" fill="#3E3C3A" points="296.8,736.2 296.8,741.9 319,754.8 
		319,749.2 	"/>
	<polygon id="XMLID_9_" fill-rule="evenodd" clip-rule="evenodd" fill="#2A2727" points="319,749.2 319,754.8 363.1,729.4 
		363,723.7 	"/>
	<polygon id="XMLID_8_" fill-rule="evenodd" clip-rule="evenodd" fill="#2A2727" points="349.3,731.6 331.2,742.1 331.2,716.4 
		340.8,710.8 349.3,715.8 	"/>
	<polygon id="XMLID_7_" fill-rule="evenodd" clip-rule="evenodd" fill="#2A2727" points="313,731.6 331.2,742.1 331.2,716.4 
		321.6,710.8 313,715.8 	"/>
	<polygon id="XMLID_6_" fill-rule="evenodd" clip-rule="evenodd" fill="#363332" points="283.6,668.1 283.8,756.1 380.9,700 
		380.7,612 	"/>
	<polygon id="XMLID_5_" fill-rule="evenodd" clip-rule="evenodd" fill="#52504E" points="283.6,668.1 277.6,664.6 277.8,752.6 
		283.8,756.1 	"/>
	<polygon id="XMLID_4_" fill-rule="evenodd" clip-rule="evenodd" fill="#52504E" points="380.7,612 374.6,608.5 277.6,664.6 
		283.6,668.1 	"/>
</g>
</svg>
